<?xml version="1.0" standalone="no"?>
<!DOCTYPE svg PUBLIC "-//W3C//DTD SVG 20010904//EN"
 "http://www.w3.org/TR/2001/REC-SVG-20010904/DTD/svg10.dtd">
<svg version="1.0" xmlns="http://www.w3.org/2000/svg"
 width="408.000000pt" height="370.000000pt" viewBox="0 0 408.000000 370.000000"
 preserveAspectRatio="xMidYMid meet">

<g transform="translate(0.000000,370.000000) scale(0.100000,-0.100000)"
fill="#000000" stroke="none">
<path d="M2684 2686 c-18 -8 -35 -19 -38 -25 -5 -8 -13 -8 -27 0 -31 16 -77 1
-94 -31 -20 -38 -19 -52 4 -81 10 -14 20 -47 23 -77 8 -87 72 -134 185 -136
69 -1 123 64 123 149 0 45 0 45 34 45 49 0 80 -14 134 -59 81 -69 124 -71 162
-9 29 47 26 54 -22 50 -62 -6 -100 19 -138 89 -32 60 -71 99 -99 99 -30 0 -60
-30 -67 -66 l-6 -35 -18 28 c-39 64 -97 86 -156 59z"/>
<path d="M1128 2663 c-30 -5 -70 -47 -62 -66 3 -8 -5 -13 -18 -14 -51 -4 -63
-78 -25 -153 26 -51 58 -77 106 -86 l34 -7 -6 67 c-6 64 -5 67 18 76 13 5 29
21 37 37 17 36 39 39 104 17 51 -17 54 -17 73 0 22 20 19 39 -4 30 -9 -4 -12
0 -9 14 5 16 1 18 -24 14 -23 -3 -33 1 -42 18 -23 43 -100 65 -182 53z"/>
<path d="M2382 2340 c-20 -19 -22 -31 -22 -130 0 -110 0 -110 24 -110 50 0 56
8 56 77 0 44 5 69 14 77 28 22 29 54 2 81 -30 30 -45 31 -74 5z"/>
<path d="M1870 2070 c0 -5 5 -10 10 -10 6 0 10 5 10 10 0 6 -4 10 -10 10 -5 0
-10 -4 -10 -10z"/>
<path d="M772 2007 c-7 -9 12 -119 67 -384 l78 -371 -42 -174 c-32 -128 -43
-162 -44 -130 -1 25 -6 42 -13 42 -7 0 -6 5 4 13 8 6 18 22 21 34 5 22 4 22
-24 8 -35 -19 -80 -82 -72 -103 4 -10 2 -13 -5 -8 -15 9 -26 -72 -18 -130 3
-25 16 -70 28 -101 18 -44 29 -59 52 -66 20 -7 35 -6 48 2 10 6 27 11 38 11
23 0 41 35 45 89 1 18 6 36 11 40 24 17 73 103 68 118 -5 15 -4 15 4 4 9 -12
13 -12 26 -2 9 8 16 17 16 22 0 18 -78 8 -123 -15 -26 -13 -47 -19 -47 -14 0
5 7 38 16 73 l16 65 250 0 c230 0 250 -1 244 -17 -4 -9 -52 -92 -106 -185 -55
-93 -100 -173 -100 -178 0 -6 6 -10 14 -10 8 0 54 68 103 150 l88 151 2 -133
c3 -164 7 -180 36 -176 22 3 22 5 27 220 3 151 9 221 17 229 14 14 15 13 32
-63 6 -26 11 -65 11 -87 0 -22 5 -43 10 -46 6 -3 10 -14 10 -24 0 -32 33 -51
87 -51 l51 0 18 45 c13 37 15 51 5 71 -6 14 -11 44 -11 67 l1 42 16 -30 c8
-16 17 -31 18 -33 1 -1 25 2 53 8 84 18 83 55 -3 300 -36 101 -63 191 -60 200
3 8 36 66 73 128 51 85 71 112 87 112 17 0 48 -49 163 -255 l141 -254 -9 -53
c-5 -29 -16 -75 -25 -103 -8 -27 -17 -59 -19 -70 -10 -55 -29 -111 -40 -120
-7 -5 -15 -17 -18 -27 -4 -9 -22 -19 -40 -23 -115 -23 -129 -49 -45 -83 58
-24 78 -27 93 -12 7 7 10 4 10 -12 -1 -16 5 -23 18 -23 14 0 24 14 38 55 10
30 17 63 14 73 -6 24 54 157 71 157 8 0 24 11 36 25 l22 26 73 -131 72 -131
-35 -41 c-39 -46 -41 -51 -22 -66 8 -7 27 -7 61 1 38 9 51 8 54 -1 2 -7 10
-12 18 -12 12 0 14 8 9 37 -6 35 -5 36 9 20 10 -13 21 -17 35 -12 l20 6 -20
57 c-11 31 -24 65 -30 74 -12 24 -12 55 2 60 7 2 0 33 -19 83 -30 78 -31 82
-19 151 10 57 10 81 0 120 -14 55 -17 94 -5 94 4 0 43 -9 87 -18 77 -18 80
-19 81 -48 0 -16 1 -165 2 -331 l2 -303 25 0 25 0 0 210 0 210 215 0 c118 0
215 -1 215 -3 0 -2 14 -65 30 -140 17 -80 30 -167 30 -207 0 -68 1 -70 25 -70
25 0 25 1 25 85 0 62 -12 140 -45 295 -25 116 -45 224 -45 240 0 16 29 167 65
336 58 275 63 310 50 323 -13 13 -17 13 -29 1 -8 -8 -40 -136 -71 -285 -75
-358 -64 -321 -86 -298 -17 16 -17 22 -5 58 24 69 15 140 -28 233 -22 45 -44
86 -50 91 -7 6 -64 -17 -152 -59 l-141 -67 -134 18 c-197 27 -214 26 -255 -15
-19 -19 -34 -41 -34 -49 0 -13 -93 -253 -102 -262 -3 -3 -235 407 -246 434 -1
4 78 13 175 19 246 17 383 48 383 88 0 16 -2 16 -20 -1 -12 -11 -36 -19 -55
-19 -50 0 -81 33 -89 95 -6 40 -10 50 -24 47 -9 -2 -21 -17 -26 -35 l-10 -32
-60 5 c-34 3 -73 7 -88 9 -18 3 -34 -4 -53 -21 -35 -32 -66 -44 -116 -44 -44
0 -113 31 -122 55 -4 10 -20 15 -47 15 -35 0 -40 -3 -40 -24 0 -34 -26 -51
-79 -51 -351 -3 -376 -5 -360 -20 31 -31 141 -50 411 -73 l88 -7 -57 -99 c-49
-85 -59 -96 -68 -81 -21 37 -45 54 -97 70 -62 19 -257 33 -266 19 -4 -6 -56
-38 -117 -73 -60 -35 -138 -84 -173 -108 -58 -41 -62 -46 -48 -62 13 -15 12
-18 -15 -33 -28 -17 -29 -16 -34 5 -3 12 -34 162 -70 332 -36 171 -67 316 -70
323 -6 16 -30 16 -43 -1z m718 -871 c-7 -7 -10 6 -9 40 l1 49 9 -39 c6 -26 6
-43 -1 -50z m-70 14 l0 -60 -240 0 c-140 0 -240 4 -240 9 0 5 5 32 12 60 l11
51 229 0 228 0 0 -60z m1704 52 c3 -5 8 -28 12 -50 l7 -42 -207 0 -206 0 1 50
2 50 193 0 c106 0 195 -4 198 -8z m-755 -209 c17 -35 29 -63 26 -63 -5 0 -65
116 -65 126 0 12 6 2 39 -63z m97 -139 c12 -18 14 -28 6 -36 -7 -7 -15 -1 -26
20 -19 36 -19 42 -6 42 5 0 17 -11 26 -26z"/>
<path d="M1932 2009 c2 -6 8 -10 13 -10 5 0 11 4 13 10 2 6 -4 11 -13 11 -9 0
-15 -5 -13 -11z"/>
<path d="M2032 2008 c6 -18 28 -21 28 -4 0 9 -7 16 -16 16 -9 0 -14 -5 -12
-12z"/>
<path d="M1965 1981 c-7 -12 12 -24 25 -16 11 7 4 25 -10 25 -5 0 -11 -4 -15
-9z"/>
<path d="M1823 912 c-23 -15 -44 -30 -48 -33 -7 -8 14 -99 24 -99 3 0 61 12
129 26 79 18 122 32 122 40 0 30 -45 65 -95 74 -27 4 -59 11 -70 14 -12 3 -36
-5 -62 -22z"/>
<path d="M1618 766 l-58 -21 0 -52 0 -53 135 0 c150 0 152 2 113 60 -14 20
-38 38 -62 47 -22 7 -47 19 -55 27 -14 11 -25 10 -73 -8z"/>
</g>
</svg>
